<svg id="ar" xmlns="http://www.w3.org/2000/svg" width="24.311" height="9.48" viewBox="0 0 24.311 9.48">
  <g id="long-arrow-pointing-up" transform="translate(21.327 0) rotate(90)">
    <path id="Path_5" data-name="Path 5" d="M9.381,16.464,5,21.2a.4.4,0,0,1-.3.123.39.39,0,0,1-.284-.123L.1,16.464a.4.4,0,0,1-.062-.432A.358.358,0,0,1,.4,15.8H3.16V.395A.38.38,0,0,1,3.555,0h2.37A.38.38,0,0,1,6.32.395V15.8H9.084a.372.372,0,0,1,.358.234A.4.4,0,0,1,9.381,16.464Z"/>
  </g>
  <ellipse id="Ellipse_1" data-name="Ellipse 1" cx="3.5" cy="3.5" rx="3.5" ry="3.5" transform="translate(17.311 1.061)"/>
</svg>
