<svg id="mathss" xmlns="http://www.w3.org/2000/svg" width="20.14" height="20.14" viewBox="0 0 20.14 20.14">
  <g id="Group_2" data-name="Group 2" transform="translate(0 0)">
    <g id="Group_1" data-name="Group 1">
      <path id="Path_1" data-name="Path 1" d="M19.347,6.153A10.127,10.127,0,0,0,15.7,1.723,10.06,10.06,0,0,0,6.153.793a10.128,10.128,0,0,0-4.431,3.65,10.06,10.06,0,0,0-.93,9.544,10.127,10.127,0,0,0,3.65,4.431,10.06,10.06,0,0,0,9.544.93,10.127,10.127,0,0,0,4.431-3.65,10.06,10.06,0,0,0,.93-9.544Zm-1.236,7.31a8.786,8.786,0,0,1-3.166,3.842,8.717,8.717,0,0,1-8.268.806,8.786,8.786,0,0,1-3.842-3.166,8.717,8.717,0,0,1-.806-8.268A8.785,8.785,0,0,1,5.195,2.835a8.717,8.717,0,0,1,8.268-.806,8.785,8.785,0,0,1,3.842,3.166,8.717,8.717,0,0,1,.806,8.268Z" transform="translate(0 0)"/>
    </g>
  </g>
  <g id="Group_4" data-name="Group 4" transform="translate(5.697 5.697)">
    <g id="Group_3" data-name="Group 3">
      <path id="Path_2" data-name="Path 2" d="M153.389,145.028a.657.657,0,0,0-.929,0l-7.432,7.432a.657.657,0,0,0,.929.929l7.432-7.432A.657.657,0,0,0,153.389,145.028Z" transform="translate(-144.836 -144.836)"/>
    </g>
  </g>
  <g id="Group_6" data-name="Group 6" transform="translate(4.596 3.72)">
    <g id="Group_5" data-name="Group 5">
      <path id="Path_3" data-name="Path 3" d="M121.876,96.764h-1.533V95.231a.657.657,0,1,0-1.314,0v1.533H117.5a.657.657,0,0,0,0,1.314h1.533V99.61a.657.657,0,0,0,1.314,0V98.077h1.533a.657.657,0,1,0,0-1.314Z" transform="translate(-116.84 -94.574)"/>
    </g>
  </g>
  <g id="Group_8" data-name="Group 8" transform="translate(10.289 12.917)">
    <g id="Group_7" data-name="Group 7">
      <path id="Path_4" data-name="Path 4" d="M266.6,328.364h-4.379a.657.657,0,1,0,0,1.314H266.6a.657.657,0,1,0,0-1.314Z" transform="translate(-261.567 -328.364)"/>
    </g>
  </g>
</svg>
