<svg xmlns="http://www.w3.org/2000/svg" width="22.789" height="19.591" viewBox="0 0 22.789 19.591">
  <g id="money_2_" data-name="money (2)" transform="translate(0 -28.588)">
    <g id="Group_5" data-name="Group 5" transform="translate(0 28.588)">
      <g id="Group_4" data-name="Group 4" transform="translate(0 0)">
        <path id="Path_115" data-name="Path 115" d="M22.757,39.674h0l-4.3-10.8a.447.447,0,0,0-.581-.25h0L.417,35.571a.438.438,0,0,0-.179.142A.442.442,0,0,0,0,36.1V47.732a.447.447,0,0,0,.447.447H19.236a.447.447,0,0,0,.447-.447V41.38l2.824-1.125A.447.447,0,0,0,22.757,39.674Zm-3.968,7.611H.895V36.549H18.789ZM7.464,35.656l7.49-2.985a3.559,3.559,0,0,0,2.565,1.106l.747,1.879Zm12.219,4.763V36.1a.447.447,0,0,0-.447-.447h-.007l-.948-2.381a.37.37,0,0,0-.037-.056.442.442,0,0,0-.467-.344,2.675,2.675,0,0,1-2.345-1.01.443.443,0,0,0-.574-.1.5.5,0,0,0-.063.012L5.65,35.415a.442.442,0,0,0-.246.239H2.627l15.162-6.037,3.972,9.974Z" transform="translate(0 -28.588)" fill="#af1af3"/>
        <path id="Path_116" data-name="Path 116" d="M32.319,193.767a2.675,2.675,0,0,1,1.806,1.8.447.447,0,0,0,.429.319.412.412,0,0,0,.069-.01.42.42,0,0,0,.061.013H45.42a.384.384,0,0,0,.055-.011.417.417,0,0,0,.5-.306v0a2.675,2.675,0,0,1,1.806-1.806.442.442,0,0,0,.307-.492.451.451,0,0,0,.013-.066v-3.579a.4.4,0,0,0-.013-.066.441.441,0,0,0-.307-.492,2.672,2.672,0,0,1-1.805-1.806.442.442,0,0,0-.5-.307.423.423,0,0,0-.063-.013H34.684a.42.42,0,0,0-.067.013.442.442,0,0,0-.492.307,2.675,2.675,0,0,1-1.806,1.805.442.442,0,0,0-.307.492.452.452,0,0,0-.013.066v3.579a.413.413,0,0,0,.013.062A.443.443,0,0,0,32.319,193.767Zm.575-3.956a3.55,3.55,0,0,0,1.971-1.971H45.238a3.551,3.551,0,0,0,1.971,1.971v3.216A3.554,3.554,0,0,0,45.239,195H34.866a3.554,3.554,0,0,0-1.971-1.971Z" transform="translate(-30.211 -178.09)" fill="#af1af3"/>
        <path id="Path_117" data-name="Path 117" d="M130.684,224.313A2.684,2.684,0,1,0,128,221.629,2.684,2.684,0,0,0,130.684,224.313Zm0-4.473a1.789,1.789,0,1,1-1.789,1.789A1.789,1.789,0,0,1,130.684,219.84Z" transform="translate(-120.842 -208.301)" fill="#af1af3"/>
        <path id="Path_118" data-name="Path 118" d="M76.671,256.287a.671.671,0,1,0-.671-.671A.671.671,0,0,0,76.671,256.287Zm0-.895a.224.224,0,1,1-.224.224A.224.224,0,0,1,76.671,255.392Z" transform="translate(-71.75 -242.287)" fill="#af1af3"/>
        <path id="Path_119" data-name="Path 119" d="M252.671,256.287a.671.671,0,1,0-.671-.671A.671.671,0,0,0,252.671,256.287Zm0-.895a.224.224,0,1,1-.224.224A.224.224,0,0,1,252.671,255.392Z" transform="translate(-237.908 -242.287)" fill="#af1af3"/>
      </g>
    </g>
  </g>
</svg>
