<svg xmlns="http://www.w3.org/2000/svg" width="22.351" height="20.954" viewBox="0 0 22.351 20.954">
  <g id="coins" transform="translate(0 -16)">
    <g id="Group_8" data-name="Group 8" transform="translate(6.985 16)">
      <g id="Group_7" data-name="Group 7">
        <path id="Path_135" data-name="Path 135" d="M167.683,16C163.959,16,160,17.224,160,19.492v2.794a.7.7,0,0,0,1.4,0v-.728a14.567,14.567,0,0,0,12.573,0v.728c0,.683-1.718,1.773-4.948,2.042a.7.7,0,0,0,.057,1.394l.06,0a11.194,11.194,0,0,0,4.831-1.387v.747c0,.6-1.266,1.454-3.614,1.869a.7.7,0,0,0,.12,1.386.61.61,0,0,0,.123-.011,9.331,9.331,0,0,0,3.371-1.179v.729c0,.6-1.266,1.454-3.614,1.869a.7.7,0,0,0,.12,1.386.61.61,0,0,0,.123-.011,9.357,9.357,0,0,0,3.371-1.179v.729c0,.6-1.266,1.454-3.614,1.869a.7.7,0,0,0,.12,1.386.61.61,0,0,0,.123-.011,9.357,9.357,0,0,0,3.371-1.179v.729c0,.683-1.718,1.773-4.948,2.042a.7.7,0,0,0,.057,1.394l.06,0c3.1-.26,6.228-1.421,6.228-3.434V19.492C175.367,17.224,171.408,16,167.683,16Zm0,5.588c-3.837,0-6.286-1.242-6.286-2.1s2.449-2.1,6.286-2.1,6.286,1.242,6.286,2.1S171.521,21.588,167.683,21.588Z" transform="translate(-160 -16)" fill="#af1af3"/>
      </g>
    </g>
    <g id="Group_10" data-name="Group 10" transform="translate(0 24.382)">
      <g id="Group_9" data-name="Group 9">
        <path id="Path_136" data-name="Path 136" d="M7.683,208C3.959,208,0,209.224,0,211.492v5.588c0,2.269,3.959,3.492,7.683,3.492s7.683-1.224,7.683-3.492v-5.588C15.367,209.224,11.408,208,7.683,208Zm6.286,9.08c0,.854-2.449,2.1-6.286,2.1S1.4,217.934,1.4,217.08v-.728a12.674,12.674,0,0,0,6.286,1.426,12.674,12.674,0,0,0,6.286-1.426Zm0-2.794c0,.854-2.449,2.1-6.286,2.1S1.4,215.14,1.4,214.286v-.728a12.674,12.674,0,0,0,6.286,1.426,12.674,12.674,0,0,0,6.286-1.426Zm-6.286-.7c-3.837,0-6.286-1.242-6.286-2.1s2.449-2.1,6.286-2.1,6.286,1.242,6.286,2.1S11.521,213.588,7.683,213.588Z" transform="translate(0 -208)" fill="#af1af3"/>
      </g>
    </g>
  </g>
</svg>
