<svg xmlns="http://www.w3.org/2000/svg" width="23.086" height="20.173" viewBox="0 0 23.086 20.173">
  <g id="save-money" transform="translate(-2 -6.414)">
    <path id="Path_120" data-name="Path 120" d="M23.741,46.359H18.169a.33.33,0,1,1,0-.66h5.572a.861.861,0,0,0,.613-.251c.015-.015.027-.029.04-.043a.315.315,0,0,1,.021-.029.857.857,0,0,0,.2-.55.874.874,0,0,0-.873-.873H20.627a.33.33,0,0,1-.244-.108A4.436,4.436,0,0,0,17.106,42.4h-4a.33.33,0,0,1,0-.66h4a5.1,5.1,0,0,1,3.664,1.557h2.97a1.534,1.534,0,0,1,1.532,1.531,1.517,1.517,0,0,1-.328.942.3.3,0,0,1-.028.039c-.033.037-.061.071-.1.1A1.522,1.522,0,0,1,23.741,46.359Z" transform="translate(-7.221 -23.673)" fill="#af1af3"/>
    <path id="Path_121" data-name="Path 121" d="M20.943,54.3a6.992,6.992,0,0,1-2.384-.417l-5.568-2.022a.33.33,0,1,1,.225-.62l5.569,2.022a6.382,6.382,0,0,0,5.05-.313l7.555-3.859a3.059,3.059,0,0,0-2.945-.488l-3.623,1.319a.322.322,0,0,1-.154.039.33.33,0,0,1-.227-.573.323.323,0,0,1,.113-.071l3.665-1.334a3.721,3.721,0,0,1,3.661.66l.311.27a.33.33,0,0,1-.066.543l-7.993,4.082A7.044,7.044,0,0,1,20.943,54.3Z" transform="translate(-7.221 -27.71)" fill="#af1af3"/>
    <path id="Path_122" data-name="Path 122" d="M5.882,47.081H2.33a.33.33,0,0,1-.33-.33V39.57a.33.33,0,0,1,.33-.33H5.882a.33.33,0,0,1,.33.33v7.181A.33.33,0,0,1,5.882,47.081Zm-3.222-.66H5.552V39.9H2.66Z" transform="translate(0 -22)" fill="#af1af3"/>
    <path id="Path_123" data-name="Path 123" d="M34.549,18.177A5.882,5.882,0,1,1,40.43,12.3,5.882,5.882,0,0,1,34.549,18.177Zm0-11.1A5.222,5.222,0,1,0,39.77,12.3a5.222,5.222,0,0,0-5.222-5.222Z" transform="translate(-17.872)" fill="#af1af3"/>
    <path id="Path_124" data-name="Path 124" d="M42.94,17.9a1.809,1.809,0,1,1,1.865-1.808.33.33,0,1,1-.66,0,1.207,1.207,0,1,0-1.206,1.148.33.33,0,1,1,0,.66Z" transform="translate(-26.263 -5.273)" fill="#af1af3"/>
    <path id="Path_125" data-name="Path 125" d="M42.709,26.86a1.839,1.839,0,0,1-1.865-1.808.33.33,0,1,1,.66,0A1.207,1.207,0,1,0,42.709,23.9a.33.33,0,1,1,0-.66,1.809,1.809,0,1,1,0,3.615Z" transform="translate(-26.033 -11.279)" fill="#af1af3"/>
    <path id="Path_126" data-name="Path 126" d="M45.83,20.281a.33.33,0,0,1-.33-.33V12.93a.33.33,0,1,1,.66,0v7.021A.33.33,0,0,1,45.83,20.281Z" transform="translate(-29.153 -4.146)" fill="#af1af3"/>
  </g>
</svg>
