<svg xmlns="http://www.w3.org/2000/svg" width="15.584" height="14.676" viewBox="0 0 15.584 14.676">
  <g id="maths" transform="translate(-3.837 -3.105)">
    <g id="Group_4" data-name="Group 4" transform="translate(5.344 5.811)">
      <g id="Group_3" data-name="Group 3">
        <path id="Path_2" data-name="Path 2" d="M156.542,145.1a.9.9,0,0,0-1.271,0L145.1,155.271a.9.9,0,0,0,1.271,1.271l10.172-10.172A.9.9,0,0,0,156.542,145.1Z" transform="translate(-144.836 -144.836)"/>
      </g>
    </g>
    <g id="Group_6" data-name="Group 6" transform="translate(3.837 3.105)">
      <g id="Group_5" data-name="Group 5">
        <path id="Path_3" data-name="Path 3" d="M123.733,97.571h-2.1v-2.1a.9.9,0,1,0-1.8,0v2.1h-2.1a.9.9,0,0,0,0,1.8h2.1v2.1a.9.9,0,1,0,1.8,0v-2.1h2.1a.9.9,0,0,0,0-1.8Z" transform="translate(-116.84 -94.574)"/>
      </g>
    </g>
    <g id="Group_8" data-name="Group 8" transform="translate(11.629 15.693)">
      <g id="Group_7" data-name="Group 7">
        <path id="Path_4" data-name="Path 4" d="M268.46,328.364h-5.994a.9.9,0,0,0,0,1.8h5.994a.9.9,0,1,0,0-1.8Z" transform="translate(-261.567 -328.364)"/>
      </g>
    </g>
  </g>
</svg>
