<svg xmlns="http://www.w3.org/2000/svg" width="16.969" height="20.912" viewBox="0 0 16.969 20.912">
  <g id="file" transform="translate(-48.272 0)">
    <g id="Group_6" data-name="Group 6" transform="translate(48.272 0)">
      <path id="Path_127" data-name="Path 127" d="M147.052,274.636H136.4a.306.306,0,1,0,0,.613h10.648a.306.306,0,0,0,0-.613Z" transform="translate(-132.511 -263.419)" fill="#af1af3"/>
      <path id="Path_128" data-name="Path 128" d="M147.052,322.961H136.4a.306.306,0,1,0,0,.613h10.648a.306.306,0,1,0,0-.613Z" transform="translate(-132.511 -309.77)" fill="#af1af3"/>
      <path id="Path_129" data-name="Path 129" d="M147.052,371.286H136.4a.306.306,0,1,0,0,.613h10.648a.306.306,0,1,0,0-.613Z" transform="translate(-132.511 -356.121)" fill="#af1af3"/>
      <path id="Path_130" data-name="Path 130" d="M147.052,419.611H136.4a.306.306,0,1,0,0,.613h10.648a.306.306,0,1,0,0-.613Z" transform="translate(-132.511 -402.473)" fill="#af1af3"/>
      <path id="Path_131" data-name="Path 131" d="M305.215,175.7H301.3a.306.306,0,0,0,0,.613h3.913a.306.306,0,0,0,0-.613Z" transform="translate(-290.674 -168.526)" fill="#af1af3"/>
      <path id="Path_132" data-name="Path 132" d="M305.215,136.06H301.3a.306.306,0,0,0,0,.613h3.913a.306.306,0,0,0,0-.613Z" transform="translate(-290.674 -130.503)" fill="#af1af3"/>
      <path id="Path_133" data-name="Path 133" d="M64.934,17.035a.306.306,0,0,0,.306-.306V2.992a1.206,1.206,0,0,0-1.2-1.2h-.583V1.2a1.206,1.206,0,0,0-1.2-1.2H49.477a1.206,1.206,0,0,0-1.2,1.2V17.92a1.206,1.206,0,0,0,1.2,1.2h.583v.583a1.206,1.206,0,0,0,1.2,1.2H64.036a1.206,1.206,0,0,0,1.2-1.2V18.161a.306.306,0,1,0-.613,0v1.547a.593.593,0,0,1-.592.592H51.264a.593.593,0,0,1-.592-.592V2.992a.593.593,0,0,1,.592-.592H64.036a.593.593,0,0,1,.592.592V16.729A.306.306,0,0,0,64.934,17.035ZM50.059,2.992v15.52h-.583a.593.593,0,0,1-.592-.592V1.2a.593.593,0,0,1,.592-.592H62.249a.593.593,0,0,1,.592.592v.583H51.264a1.206,1.206,0,0,0-1.2,1.2Z" transform="translate(-48.272 0)" fill="#af1af3"/>
      <path id="Path_134" data-name="Path 134" d="M135.8,93.826a.306.306,0,0,0-.306.306v2.313a.935.935,0,0,0,.836.932c.116.013,3.417,0,3.422,0h0a.935.935,0,0,0,.836-.932v-4a.939.939,0,0,0-.938-.938h-3.222a.939.939,0,0,0-.938.938v.24a.306.306,0,1,0,.613,0v-.24a.326.326,0,0,1,.325-.325h3.222a.326.326,0,0,1,.325.325v3.136a2.651,2.651,0,0,0-.828-.593,1.312,1.312,0,1,0-2.216,0,2.651,2.651,0,0,0-.828.593V94.133A.306.306,0,0,0,135.8,93.826Zm2.242-.235a.7.7,0,1,1-.7.7A.7.7,0,0,1,138.045,93.592Zm-.6,1.865a1.306,1.306,0,0,0,1.2,0,2.043,2.043,0,0,1,1.286,1.16.323.323,0,0,1-.242.152c-.02,0-3.238,0-3.284,0H136.4a.323.323,0,0,1-.242-.152A2.043,2.043,0,0,1,137.443,95.456Z" transform="translate(-131.933 -87.775)" fill="#af1af3"/>
    </g>
  </g>
</svg>
